<?xml version="1.0" standalone="no"?>
<!DOCTYPE svg PUBLIC "-//W3C//DTD SVG 20010904//EN"
 "http://www.w3.org/TR/2001/REC-SVG-20010904/DTD/svg10.dtd">
<svg version="1.0" xmlns="http://www.w3.org/2000/svg"
 width="1024.000000pt" height="1024.000000pt" viewBox="0 0 1024.000000 1024.000000"
 preserveAspectRatio="xMidYMid meet">

<defs>
<linearGradient id="silverSweep" x1="0%" y1="100%" x2="100%" y2="0%" gradientUnits="objectBoundingBox">
<stop offset="0%" stop-color="#000000"/>
<stop offset="35%" stop-color="#1f1f1f"/>
<stop offset="45%" stop-color="#6b7280"/>
<stop offset="50%" stop-color="#f8fafc" stop-opacity="0.98"/>
<stop offset="55%" stop-color="#6b7280"/>
<stop offset="65%" stop-color="#1f1f1f"/>
<stop offset="100%" stop-color="#000000"/>
<animateTransform
attributeName="gradientTransform"
type="translate"
from="-1 1"
to="1 -1"
dur="2.5s"
repeatCount="indefinite"/>
</linearGradient>
</defs>

<g id="logo-shape" transform="translate(0.000000,1024.000000) scale(0.100000,-0.100000)"
fill="url(#silverSweep)" stroke="none">
<path d="M4952 9439 c-138 -10 -318 -54 -465 -113 -380 -155 -668 -441 -841
-836 -91 -207 -128 -519 -91 -764 28 -187 73 -312 189 -526 82 -152 83 -155
71 -190 -54 -153 -165 -294 -365 -465 -176 -150 -328 -221 -585 -277 -72 -15
-495 -17 -840 -4 -326 12 -500 -9 -710 -85 -82 -30 -215 -110 -215 -130 0 -6
7 -8 17 -5 29 12 96 24 163 30 l65 6 -40 -14 c-22 -8 -79 -19 -127 -25 -48 -5
-95 -14 -105 -20 -10 -5 -56 -24 -103 -41 -283 -107 -490 -320 -562 -577 -31
-113 -31 -290 0 -390 59 -189 203 -341 370 -393 87 -27 246 -28 331 -1 102 32
213 129 227 199 9 45 -10 47 -74 8 -31 -20 -79 -40 -107 -45 -152 -28 -317 57
-384 199 -21 46 -26 69 -25 140 0 74 4 92 28 140 38 73 141 174 209 205 250
115 548 6 670 -244 41 -85 41 -88 45 -212 5 -146 -13 -235 -71 -359 -20 -41
-35 -76 -33 -77 1 -2 54 25 117 59 105 57 238 118 299 138 14 5 50 18 80 29
101 38 189 59 472 112 95 18 94 16 75 91 -51 204 -172 408 -313 529 -276 239
-583 369 -869 369 -153 0 -241 -22 -390 -96 -277 -139 -415 -308 -455 -555
-10 -64 -10 -87 4 -153 9 -43 25 -99 36 -124 24 -53 21 -62 -10 -30 -76 80
-110 266 -76 408 18 76 72 201 106 248 47 65 149 169 210 215 215 162 522 238
776 192 285 -51 506 -166 721 -375 l85 -83 141 6 c280 12 545 91 742 223 181
120 383 334 499 529 55 91 54 90 61 83 9 -8 -33 -113 -81 -206 -64 -124 -145
-230 -263 -345 -113 -110 -175 -154 -311 -222 -190 -95 -345 -134 -565 -141
-82 -3 -151 -7 -153 -9 -5 -5 14 -39 65 -117 51 -80 37 -77 253 -49 189 25
284 57 519 175 193 98 88 -9 -122 -123 -153 -83 -387 -151 -519 -151 -34 0
-57 -4 -53 -9 3 -5 18 -60 34 -123 34 -135 28 -133 189 -93 258 63 447 145
632 274 248 171 407 373 506 644 26 70 44 97 44 65 0 -25 -39 -163 -60 -218
-60 -152 -174 -333 -284 -449 -51 -54 -210 -176 -293 -224 -120 -70 -274 -130
-461 -181 -132 -36 -179 -46 -447 -96 -303 -57 -465 -111 -710 -235 -264 -133
-439 -269 -580 -449 -221 -283 -326 -569 -328 -891 -1 -155 17 -276 60 -398
152 -429 511 -740 958 -828 88 -18 320 -18 400 0 167 36 352 167 406 285 39
87 15 106 -63 48 -145 -107 -235 -136 -418 -136 -138 0 -213 15 -317 63 -213
100 -365 274 -423 486 -20 70 -22 96 -17 205 4 86 12 142 25 180 92 262 315
472 617 583 122 45 305 89 420 102 106 11 278 35 360 50 44 8 107 19 140 24
110 19 229 49 358 91 l128 42 97 120 c53 66 108 135 122 152 14 18 64 79 111
137 273 331 429 613 502 904 46 180 58 269 59 430 2 189 14 206 38 55 31 -200
-7 -509 -95 -755 -101 -282 -222 -478 -550 -890 -53 -66 -113 -145 -133 -175
-20 -30 -58 -84 -83 -120 -167 -234 -284 -501 -341 -775 -33 -160 -33 -431 1
-595 47 -227 109 -365 284 -628 176 -265 212 -350 212 -507 0 -92 -3 -105 -33
-166 -38 -79 -82 -121 -170 -162 -84 -39 -205 -48 -302 -22 -109 29 -120 30
-120 7 0 -26 70 -95 134 -131 168 -96 452 -89 658 15 124 63 231 171 292 293
56 113 70 179 70 336 1 167 -16 249 -100 479 -79 216 -104 324 -111 486 -7
172 8 292 53 428 50 148 110 272 196 404 74 114 85 128 264 329 100 114 194
235 230 297 16 28 34 42 34 27 0 -35 -126 -217 -334 -480 -74 -93 -155 -204
-180 -245 -90 -148 -148 -325 -167 -504 -13 -124 -7 -160 42 -261 91 -190 303
-357 507 -400 128 -26 310 -15 299 19 -2 6 -31 25 -65 42 -119 60 -216 163
-291 309 -48 94 -64 152 -82 298 -11 95 -11 123 4 233 28 198 120 426 255 628
55 82 183 221 223 241 26 14 30 13 81 -26 29 -23 112 -101 184 -174 323 -326
490 -723 430 -1025 -32 -160 -79 -261 -166 -353 -56 -60 -173 -147 -197 -147
-6 0 -17 -7 -24 -16 -23 -28 14 -44 105 -44 149 0 233 36 347 147 91 88 125
146 144 248 46 241 -28 566 -185 807 -46 71 -51 92 -14 57 26 -24 114 -142
114 -152 0 -3 13 -25 29 -49 31 -46 80 -156 113 -253 30 -91 48 -209 48 -325
0 -169 -28 -296 -126 -580 -69 -200 -83 -277 -83 -440 0 -153 15 -228 67 -334
69 -139 166 -236 307 -306 107 -54 177 -71 317 -77 143 -7 216 6 317 55 101
50 180 143 142 166 -4 3 -35 -4 -67 -16 -48 -18 -81 -22 -174 -23 -103 0 -121
3 -170 26 -119 56 -199 173 -208 305 -10 151 40 277 218 554 223 347 299 579
300 915 0 111 -25 320 -47 389 -48 156 -70 211 -118 311 -117 241 -231 405
-515 745 -127 152 -144 174 -191 236 -169 225 -292 490 -350 756 -39 179 -49
527 -18 641 15 57 33 36 25 -32 -3 -31 -2 -124 4 -207 21 -324 133 -652 317
-923 103 -153 106 -157 281 -359 92 -107 188 -220 215 -253 59 -73 69 -80 191
-124 192 -70 392 -113 736 -160 404 -55 546 -89 715 -170 322 -155 524 -420
542 -713 13 -228 -80 -432 -267 -583 -110 -89 -228 -139 -392 -166 -198 -33
-365 11 -536 139 -74 56 -83 -3 -16 -104 64 -96 231 -204 366 -237 156 -37
430 -14 603 51 184 70 312 153 455 297 195 196 294 376 347 631 23 114 23 333
-1 454 -73 368 -274 694 -568 924 -63 49 -231 162 -242 162 -3 0 -28 13 -56
30 -77 45 -264 124 -386 163 -114 36 -342 88 -579 132 -454 85 -736 217 -976
455 -114 112 -198 230 -275 381 -46 92 -94 246 -94 301 0 30 1 31 14 13 7 -11
16 -33 20 -50 10 -44 25 -78 84 -196 155 -312 482 -575 882 -709 102 -35 353
-91 363 -81 5 5 17 46 27 92 10 46 23 97 29 112 6 16 9 33 5 38 -3 5 -31 9
-63 9 -120 0 -358 65 -489 134 -26 13 -65 32 -87 42 -61 27 -179 109 -210 145
-32 38 -19 50 24 22 16 -10 65 -40 107 -67 175 -108 421 -183 691 -211 l62 -6
37 58 c20 32 50 79 65 104 l27 46 -162 6 c-182 7 -291 27 -437 80 -230 84
-417 215 -568 401 -109 133 -223 332 -236 412 -6 36 -2 32 55 -56 204 -312
446 -527 721 -640 196 -82 327 -110 532 -117 l159 -6 86 86 c116 114 211 184
329 245 185 95 360 142 528 142 182 0 364 -51 544 -152 108 -61 283 -236 335
-336 113 -218 112 -464 -4 -595 -44 -51 -55 -46 -26 11 14 27 33 89 42 139 16
85 16 95 0 183 -65 355 -434 630 -846 630 -83 0 -225 -22 -310 -48 -88 -26
-239 -107 -320 -170 -62 -49 -86 -77 -139 -163 -36 -57 -73 -125 -83 -152 -10
-27 -30 -72 -45 -101 -14 -28 -39 -87 -54 -131 -21 -60 -33 -80 -46 -80 -45 0
-22 122 48 260 52 103 95 168 161 244 85 99 8 61 -89 -44 -161 -173 -289 -407
-296 -542 l-2 -46 75 -14 c206 -36 265 -49 383 -84 70 -21 167 -54 214 -74 48
-19 93 -35 100 -35 21 0 -4 50 -52 101 -35 37 -45 56 -50 95 -3 27 -7 59 -9
72 -5 35 19 164 43 228 79 211 321 397 534 412 54 3 78 2 74 -5 -4 -6 -24 -14
-44 -18 -48 -8 -181 -74 -244 -121 -125 -92 -236 -257 -260 -389 -14 -77 -5
-202 21 -285 12 -36 19 -74 16 -86 -4 -16 2 -24 32 -38 20 -10 75 -40 120 -68
46 -27 86 -47 89 -44 3 3 -8 34 -24 68 -62 130 -78 201 -77 343 0 124 2 134
32 206 122 286 443 401 714 257 80 -42 144 -109 182 -188 27 -56 31 -76 31
-145 0 -136 -64 -239 -183 -297 -61 -30 -75 -33 -162 -33 -87 0 -100 3 -159
33 -81 40 -95 41 -86 4 16 -65 128 -166 222 -202 51 -19 73 -21 178 -18 102 4
130 9 190 33 142 57 252 161 316 300 68 150 67 380 -4 545 -101 233 -312 427
-566 520 -40 15 -79 38 -101 60 -45 45 -106 80 -218 124 -111 43 -203 62 -372
77 -130 12 -197 11 -685 -10 -482 -20 -752 45 -1006 241 -120 93 -305 276
-354 352 -21 32 -55 92 -76 133 l-39 76 34 56 c154 257 226 477 241 741 30
516 -209 1012 -633 1310 -224 158 -504 260 -756 275 -50 3 -111 7 -136 9 -25
2 -96 -1 -158 -5z m-819 -1586 c23 -9 67 -32 97 -52 54 -35 88 -68 317 -303
62 -64 144 -137 183 -164 70 -48 84 -64 54 -64 -23 0 -164 73 -227 117 -48 33
-80 58 -256 201 -106 87 -174 129 -239 151 -124 42 -213 17 -260 -73 l-27 -51
-3 39 c-13 162 181 269 361 199z m2128 16 c89 -19 179 -127 179 -216 0 -51
-16 -47 -48 10 -25 44 -39 58 -81 75 -60 26 -90 27 -162 6 -111 -33 -165 -68
-365 -237 -38 -33 -102 -81 -142 -109 -84 -57 -235 -132 -253 -126 -7 2 19 25
57 51 41 27 131 108 215 194 261 268 300 300 399 336 84 29 123 33 201 16z
m-2116 -313 c28 -13 97 -63 155 -110 58 -48 132 -107 165 -133 57 -43 206
-123 255 -136 35 -9 21 -37 -35 -68 -140 -79 -342 -78 -468 3 -61 39 -118 104
-153 176 -25 51 -28 68 -29 158 0 141 15 155 110 110z m1981 16 c17 -11 34
-71 34 -121 -1 -150 -98 -298 -238 -364 -120 -56 -290 -46 -423 25 -33 17 -59
37 -59 44 0 7 17 18 38 25 51 16 170 76 212 107 19 14 64 51 100 82 196 168
297 229 336 202z m-4586 -1979 c180 -58 336 -215 392 -395 25 -82 34 -222 19
-284 -11 -42 -107 -191 -117 -181 -2 2 6 41 17 88 27 108 29 242 4 324 -36
121 -123 260 -206 327 -52 42 -191 128 -208 128 -7 0 -9 5 -6 10 7 11 33 7
105 -17z m727 -84 c74 -72 148 -196 187 -316 18 -54 18 -132 1 -136 -5 -1 -20
27 -33 63 -45 131 -55 151 -103 225 -27 41 -66 94 -87 118 -53 57 -68 87 -51
98 17 10 30 2 86 -52z m2541 -217 c5 -279 -9 -414 -65 -621 -54 -204 -186
-457 -366 -702 -271 -371 -329 -462 -407 -638 -51 -115 -79 -201 -107 -326
-23 -105 -26 -478 -4 -568 24 -96 -4 -90 -34 8 -29 94 -38 204 -32 410 5 190
8 208 45 355 73 290 161 462 401 783 179 240 246 340 318 477 159 300 223 562
223 909 0 116 3 143 13 133 8 -9 13 -71 15 -220z m-2732 -104 c51 -101 68
-222 42 -295 -22 -60 -35 -38 -37 62 -1 90 -12 175 -27 219 -28 79 -15 87 22
14z m6029 -75 c-4 -21 -10 -69 -13 -107 -4 -38 -12 -71 -19 -73 -28 -10 -23
141 7 197 18 34 33 24 25 -17z m-2960 -218 c19 -308 149 -637 358 -905 66 -85
214 -255 303 -350 121 -127 282 -332 331 -420 159 -286 173 -329 173 -539 0
-245 -28 -348 -190 -716 -5 -11 -18 -42 -28 -70 -11 -27 -27 -68 -36 -90 l-17
-40 6 55 c3 30 20 93 36 140 142 396 158 460 159 625 0 117 -19 233 -52 326
-43 118 -170 305 -298 440 -307 323 -496 574 -628 834 -76 150 -123 322 -147
542 -18 167 -19 222 -5 259 18 45 29 16 35 -91z m-3000 -364 c11 -20 -44 -63
-149 -117 -332 -169 -584 -420 -715 -711 -89 -197 -118 -317 -128 -528 -7
-146 6 -251 47 -379 38 -118 36 -150 -5 -86 -63 99 -125 351 -125 512 0 159
83 456 167 593 177 293 412 507 722 657 71 35 149 65 173 67 4 1 9 -3 13 -8z
m1435 -15 c0 -13 -102 -68 -215 -116 -120 -51 -371 -103 -675 -140 -337 -41
-601 -110 -793 -206 -86 -44 -238 -149 -310 -214 -37 -35 -70 -60 -74 -57 -9
10 62 99 139 173 90 87 176 148 292 209 220 115 409 161 756 185 342 23 579
65 750 133 131 52 130 52 130 33z m3121 -16 c41 -17 112 -40 159 -51 124 -29
495 -86 640 -99 515 -44 810 -153 1113 -408 169 -143 356 -407 309 -436 -19
-12 -37 5 -94 87 -255 367 -646 575 -1238 657 -463 64 -714 124 -907 216 -136
65 -122 91 18 34z m1544 -64 c169 -44 463 -276 620 -486 68 -91 151 -247 185
-345 77 -222 89 -496 33 -720 -27 -109 -152 -345 -190 -359 -21 -8 -16 11 19
72 68 122 97 206 117 332 46 282 -53 717 -217 960 -128 190 -378 407 -579 505
-103 50 -96 70 12 41z m-1094 -366 c52 -5 147 -18 210 -29 63 -11 186 -29 274
-41 435 -59 709 -177 916 -396 61 -65 121 -150 164 -231 43 -84 23 -84 -33 -1
-114 169 -245 279 -454 382 -186 90 -264 111 -723 192 -144 25 -255 53 -320
79 -33 13 -89 31 -124 40 -69 17 -99 32 -41 21 19 -4 78 -11 131 -16z m-4286
-59 c0 -19 -16 -23 -300 -81 -292 -59 -449 -104 -579 -164 -274 -128 -426
-287 -545 -570 -7 -18 -16 -25 -21 -20 -22 22 62 234 134 341 105 154 279 286
472 359 247 93 839 188 839 135z m920 -218 c-146 -266 -219 -454 -259 -672
-35 -186 -14 -525 43 -697 27 -80 116 -289 143 -334 58 -96 190 -369 214 -442
25 -75 28 -97 29 -223 0 -139 -1 -141 -33 -205 -35 -69 -92 -135 -123 -143
-16 -4 -13 2 11 30 17 19 43 60 58 91 24 52 26 68 26 187 1 193 -30 275 -212
572 -133 215 -192 349 -244 551 -20 78 -23 111 -23 307 0 195 3 232 24 325 44
199 139 415 259 593 61 91 109 144 120 133 2 -3 -13 -35 -33 -73z m2272 -55
c79 -75 144 -164 203 -278 69 -136 106 -256 125 -406 21 -168 8 -189 -34 -58
-82 252 -124 340 -268 564 -94 146 -133 212 -133 225 0 3 12 5 26 5 17 0 44
-17 81 -52z m424 -94 c11 -24 29 -53 39 -66 10 -13 37 -64 59 -112 23 -49 59
-108 80 -132 97 -104 150 -465 105 -718 -16 -94 -59 -243 -76 -264 -17 -20
-38 6 -38 47 0 20 9 97 20 171 11 74 20 181 20 237 0 162 -39 412 -82 528 -29
79 -126 276 -160 327 -21 31 -38 60 -38 64 0 17 52 -43 71 -82z m-1972 -413
c-51 -159 -63 -250 -56 -429 5 -168 23 -232 102 -379 25 -45 40 -83 35 -83
-20 0 -100 92 -136 157 -115 205 -124 448 -24 660 41 87 104 193 114 193 2 0
-14 -54 -35 -119z m1417 -396 c10 -95 -22 -296 -59 -372 -16 -35 -39 -71 -50
-80 -19 -18 -19 -17 -12 7 4 14 15 43 25 65 47 111 60 181 60 340 0 61 3 121
7 135 l7 25 8 -30 c4 -17 11 -57 14 -90z"/>
<path d="M1840 8279 c-411 -93 -787 -374 -1020 -763 -98 -163 -145 -311 -159
-499 -19 -268 18 -454 137 -674 49 -91 138 -213 161 -221 4 -1 32 14 62 35 30
20 75 49 101 63 l48 26 -60 38 c-148 94 -256 267 -306 487 -12 55 -15 106 -12
218 4 126 9 160 36 251 41 135 115 283 197 391 63 84 185 207 249 251 l31 21
-31 -34 c-16 -19 -55 -62 -86 -96 -113 -125 -228 -339 -275 -511 -23 -86 -26
-115 -26 -262 -1 -180 12 -259 60 -378 38 -95 113 -217 178 -287 30 -33 55
-63 55 -67 0 -5 8 -8 18 -8 19 0 182 62 185 71 1 3 -34 34 -78 70 -88 71 -179
192 -215 288 -28 74 -19 88 15 22 31 -63 111 -150 203 -223 34 -27 62 -55 62
-62 0 -7 15 -30 33 -50 l32 -38 70 16 c189 41 525 48 772 15 317 -43 574 -20
833 73 85 30 224 97 217 105 -2 2 -46 -8 -98 -22 -178 -48 -510 -57 -722 -20
-208 36 -436 111 -606 198 -194 100 -343 248 -406 404 -33 81 -45 234 -26 324
17 79 82 205 144 279 107 128 228 202 392 240 102 24 168 25 253 5 83 -20 128
-44 179 -96 60 -60 77 -110 71 -207 -4 -69 -9 -84 -41 -132 -20 -30 -48 -69
-63 -87 -30 -38 -25 -53 19 -53 72 0 192 81 244 164 64 101 83 256 44 369 -61
176 -239 322 -454 371 -97 23 -307 20 -417 -5z m-460 -323 c0 -2 -7 -7 -16
-10 -8 -3 -12 -2 -9 4 6 10 25 14 25 6z m178 -163 c-51 -55 -126 -167 -156
-234 -12 -25 -31 -84 -43 -130 -29 -112 -23 -271 13 -369 45 -122 153 -255
290 -355 64 -48 238 -140 331 -176 29 -11 61 -24 72 -29 11 -4 27 -11 35 -14
8 -3 -13 -4 -47 -1 -113 10 -252 53 -383 117 -113 56 -133 70 -216 152 -101
102 -138 165 -173 300 -54 205 1 442 145 631 52 68 162 171 172 160 3 -2 -15
-26 -40 -52z"/>
<path d="M7950 8280 c-193 -53 -335 -164 -409 -320 -34 -72 -35 -79 -35 -190
-1 -109 1 -118 31 -180 52 -104 123 -170 216 -200 40 -13 87 -7 87 11 0 6 -15
29 -33 52 -55 68 -77 111 -88 171 -44 239 200 396 510 331 246 -52 461 -262
532 -520 53 -195 -8 -384 -180 -556 -79 -79 -160 -134 -296 -199 -295 -141
-636 -209 -990 -197 -156 6 -327 36 -387 68 -11 6 -22 8 -25 5 -9 -8 98 -71
169 -100 160 -63 403 -108 592 -108 61 0 192 10 291 22 155 19 211 22 405 17
151 -3 257 -11 322 -22 l97 -18 38 28 c21 16 96 83 166 148 94 89 139 138 168
189 62 105 77 80 23 -39 -52 -117 -157 -244 -258 -308 -31 -19 -56 -39 -56
-44 0 -12 177 -63 197 -57 47 15 213 217 269 328 109 214 124 485 43 738 -55
170 -177 374 -305 511 -41 43 -74 81 -74 84 0 16 96 -63 166 -137 76 -81 190
-239 232 -323 34 -69 90 -247 102 -327 28 -172 1 -388 -68 -543 -57 -132 -189
-283 -284 -328 -26 -12 -47 -25 -48 -28 0 -4 33 -24 73 -44 39 -21 84 -46 99
-57 14 -10 29 -18 33 -18 10 0 72 68 119 130 91 120 148 229 194 375 24 75 25
93 26 290 0 198 -1 215 -26 300 -76 257 -185 449 -362 632 -208 215 -521 385
-805 438 -119 22 -384 19 -471 -5z m781 -507 c139 -140 227 -296 250 -444 39
-252 -47 -475 -243 -626 -144 -110 -385 -204 -563 -218 l-70 -6 110 41 c209
78 318 140 453 259 126 111 202 238 228 381 27 153 11 258 -65 414 -40 80 -66
118 -121 174 -38 40 -70 77 -70 82 0 23 28 6 91 -57z"/>
<path d="M3420 3879 c-14 -6 -72 -22 -130 -35 -58 -14 -112 -27 -121 -30 -25
-7 -41 -112 -28 -178 16 -75 75 -186 99 -186 3 0 12 17 19 38 26 73 100 222
144 290 77 120 78 125 17 101z"/>
<path d="M6710 3885 c0 -3 29 -50 64 -103 59 -91 137 -246 152 -307 10 -40 32
-28 82 45 l44 65 -4 103 c-3 56 -9 107 -14 112 -5 5 -70 25 -144 45 -185 49
-180 48 -180 40z"/>
<path d="M2965 3779 c-99 -18 -95 -16 -88 -52 3 -17 10 -37 15 -43 5 -7 18
-45 29 -85 11 -41 34 -101 50 -133 29 -57 115 -177 131 -184 4 -2 8 -8 8 -13
0 -19 -81 32 -133 84 -35 34 -68 81 -93 131 -35 72 -39 87 -42 177 l-4 98
-107 -6 c-58 -3 -124 -8 -146 -12 -36 -6 -40 -9 -43 -39 -8 -81 85 -265 198
-392 34 -39 98 -97 141 -130 89 -67 245 -148 257 -134 5 5 16 50 26 99 10 50
24 112 32 139 l14 49 -44 38 c-24 22 -60 70 -82 111 -36 68 -39 79 -39 158 0
47 3 100 7 118 8 36 5 37 -87 21z"/>
<path d="M7155 3673 c0 -101 -2 -113 -32 -176 -19 -40 -56 -92 -89 -127 l-57
-60 18 -61 c9 -34 22 -94 29 -133 14 -84 20 -87 103 -54 249 101 531 433 537
633 l1 50 -170 6 c-93 4 -199 12 -235 18 -113 19 -105 27 -105 -96z m202 0 c9
-24 -15 -130 -42 -183 -13 -25 -42 -69 -64 -98 -41 -52 -138 -132 -160 -132
-6 0 13 29 43 64 62 74 118 182 142 276 9 36 21 71 26 78 15 17 48 15 55 -5z"/>
</g>
</svg>
